,
Brought to you by  http://www.scenetime.com/signup.php
 
 Hottest scene tracker on the net !!!   
 
No fake torrents from scenebalance 
shame on those who comment fake before downloading my torrents

    seed back for speed


 



...................................NFO:.................................................General 
Complete name : Barbie Presents Thumbelina 2009 DVDRip Xvid AC3-Freebee.avi 
Format : AVI 
Format/Info : Audio Video Interleave 
File size : 1.05 GiB 
Duration : 1h 15mn 
Overall bit rate : 1 998 Kbps 

Video 
ID : 0 
Format : MPEG-4 Visual 
Format profile : Advanced Simple@L5 
Format settings, BVOP : 2 
Format settings, QPel : No 
Format settings, GMC : No warppoints 
Format settings, Matrix : Default (MPEG) 
Codec ID : XVID 
Codec ID/Hint : XviD 
Duration : 1h 15mn 
Bit rate : 1 541 Kbps 
Width : 720 pixels 
Height : 400 pixels 
Display aspect ratio : 16:9 
Frame rate : 23.976 fps 
Color space : YUV 
Chroma subsampling : 4:2:0 
Bit depth : 8 bits 
Scan type : Progressive 
Compression mode : Lossy 
Bits/(Pixel*Frame) : 0.223 
Stream size : 829 MiB (77%) 
Writing library : XviD 63 

Audio 
ID : 1 
Format : AC-3 
Format/Info : Audio Coding 3 
Mode extension : CM (complete main) 
Codec ID : 2000 
Duration : 1h 15mn 
Bit rate mode : Constant 
Bit rate : 448 Kbps 
Channel(s) : 6 channels 
Channel positions : Front: L C R, Side: L R, LFE 
Sampling rate : 48.0 KHz 
Bit depth : 16 bits 
Compression mode : Lossy 
Stream size : 241 MiB (22%) 
Alignment : Split accross interleaves 
Interleave, duration : 42 ms (1.00 video frame) 
Interleave, preload duration : 500 ms 


   
              Language.............: English, French, Spanish
              Subtitle.............: English
              Imdb-Rating..........: 5.6/10
              Imdb.................: http://www.imdb.com/title/tt1398940/
              Video-Source.........: DVD
              Audio-Source.........: DVD
              Encoder..............: Freebee269
              Plot.................: Thumbelina's life among the wildflowers
 and the magical world of the Twillerbees is threatened when a spoiled child
 uproots her along with the patch of wildflowers she knew as home. Before
 long, Thumbelina is in a strange new environment: a swanky apartment inside
 of a bustling city, where she learns of construction plans that threaten to
 destroy the land of the Twillerbees. Along with her friends and the magic
 of nature, Thumbelina vows that her tiny stature won't stop her from making
 a world of difference.

              Director.............: Conrad Helten
              Writer...............: Elise Allen (screenwriter)
              Stars................: Kelly Sheridan, Anna Cummer and
 Kelly Metzger
              Genre................: Animation | Family
   
                    
                    Sample Included
                    


                    
                    Greets: All P2P Groups!
                    

 
                                          
                           Respects                  
                    
                     SANTi, TOXiCiNK, LKRG 
                    NPW, FLAWL3SS, BDK, CM8
                      IMAGiNE, ViSiON, Rx  
                          Legion, *THC*